<mxfile host="app.diagrams.net" modified="2021-10-15T03:25:00.756Z" agent="5.0 (Macintosh; Intel Mac OS X 10_15_7) AppleWebKit/537.36 (KHTML, like Gecko) Chrome/94.0.4606.81 Safari/537.36" etag="MUQwSKnvaNpXUEA18WXt" version="15.5.0" type="github">
  <diagram id="_JjBT7h8oeDZBbeXstyy" name="Page-1">
    <mxGraphModel dx="865" dy="477" grid="1" gridSize="10" guides="1" tooltips="1" connect="1" arrows="1" fold="1" page="1" pageScale="1" pageWidth="827" pageHeight="1169" math="0" shadow="0">
      <root>
        <mxCell id="0" />
        <mxCell id="1" parent="0" />
        <mxCell id="WcaRMcE1ToPl9hFpoS0a-1" value="APP流量" style="shape=tape;whiteSpace=wrap;html=1;fontSize=16;" vertex="1" parent="1">
          <mxGeometry x="135" y="80" width="135" height="60" as="geometry" />
        </mxCell>
        <mxCell id="WcaRMcE1ToPl9hFpoS0a-2" value="" style="whiteSpace=wrap;html=1;aspect=fixed;" vertex="1" parent="1">
          <mxGeometry x="90" y="180" width="230" height="230" as="geometry" />
        </mxCell>
        <mxCell id="WcaRMcE1ToPl9hFpoS0a-3" value="SG" style="text;html=1;strokeColor=none;fillColor=none;align=center;verticalAlign=middle;whiteSpace=wrap;rounded=0;fontSize=16;" vertex="1" parent="1">
          <mxGeometry x="90" y="180" width="60" height="30" as="geometry" />
        </mxCell>
        <mxCell id="WcaRMcE1ToPl9hFpoS0a-5" value="SGW" style="shape=hexagon;perimeter=hexagonPerimeter2;whiteSpace=wrap;html=1;fixedSize=1;fontSize=16;" vertex="1" parent="1">
          <mxGeometry x="140" y="210" width="120" height="30" as="geometry" />
        </mxCell>
        <mxCell id="WcaRMcE1ToPl9hFpoS0a-6" value="" style="endArrow=classic;html=1;rounded=0;edgeStyle=orthogonalEdgeStyle;entryX=0.5;entryY=0;entryDx=0;entryDy=0;" edge="1" parent="1" source="WcaRMcE1ToPl9hFpoS0a-1" target="WcaRMcE1ToPl9hFpoS0a-5">
          <mxGeometry relative="1" as="geometry">
            <mxPoint x="200" y="140" as="sourcePoint" />
            <mxPoint x="200" y="240" as="targetPoint" />
          </mxGeometry>
        </mxCell>
        <mxCell id="WcaRMcE1ToPl9hFpoS0a-7" value="shopee.co.id" style="edgeLabel;resizable=0;html=1;align=center;verticalAlign=middle;fontStyle=0;fontSize=9;" connectable="0" vertex="1" parent="WcaRMcE1ToPl9hFpoS0a-6">
          <mxGeometry relative="1" as="geometry" />
        </mxCell>
        <mxCell id="WcaRMcE1ToPl9hFpoS0a-9" value="DP services" style="rounded=1;whiteSpace=wrap;html=1;fontSize=16;" vertex="1" parent="1">
          <mxGeometry x="140" y="290" width="120" height="60" as="geometry" />
        </mxCell>
        <mxCell id="WcaRMcE1ToPl9hFpoS0a-10" value="" style="endArrow=classic;html=1;rounded=0;edgeStyle=orthogonalEdgeStyle;" edge="1" parent="1" target="WcaRMcE1ToPl9hFpoS0a-9">
          <mxGeometry relative="1" as="geometry">
            <mxPoint x="200" y="240" as="sourcePoint" />
            <mxPoint x="210" y="220" as="targetPoint" />
          </mxGeometry>
        </mxCell>
        <mxCell id="WcaRMcE1ToPl9hFpoS0a-11" value="&lt;font style=&quot;font-size: 11px&quot;&gt;/digital-purchase&lt;/font&gt;" style="edgeLabel;resizable=0;html=1;align=center;verticalAlign=middle;fontStyle=0;fontSize=9;" connectable="0" vertex="1" parent="WcaRMcE1ToPl9hFpoS0a-10">
          <mxGeometry relative="1" as="geometry" />
        </mxCell>
        <mxCell id="WcaRMcE1ToPl9hFpoS0a-12" value="APP流量" style="shape=tape;whiteSpace=wrap;html=1;fontSize=16;" vertex="1" parent="1">
          <mxGeometry x="465" y="80" width="135" height="60" as="geometry" />
        </mxCell>
        <mxCell id="WcaRMcE1ToPl9hFpoS0a-13" value="" style="whiteSpace=wrap;html=1;aspect=fixed;" vertex="1" parent="1">
          <mxGeometry x="420" y="180" width="230" height="230" as="geometry" />
        </mxCell>
        <mxCell id="WcaRMcE1ToPl9hFpoS0a-14" value="SG" style="text;html=1;strokeColor=none;fillColor=none;align=center;verticalAlign=middle;whiteSpace=wrap;rounded=0;fontSize=16;" vertex="1" parent="1">
          <mxGeometry x="420" y="180" width="60" height="30" as="geometry" />
        </mxCell>
        <mxCell id="WcaRMcE1ToPl9hFpoS0a-15" value="SGW" style="shape=hexagon;perimeter=hexagonPerimeter2;whiteSpace=wrap;html=1;fixedSize=1;fontSize=16;" vertex="1" parent="1">
          <mxGeometry x="470" y="210" width="120" height="30" as="geometry" />
        </mxCell>
        <mxCell id="WcaRMcE1ToPl9hFpoS0a-16" value="" style="endArrow=classic;html=1;rounded=0;edgeStyle=orthogonalEdgeStyle;entryX=0.5;entryY=0;entryDx=0;entryDy=0;" edge="1" parent="1" source="WcaRMcE1ToPl9hFpoS0a-12" target="WcaRMcE1ToPl9hFpoS0a-15">
          <mxGeometry relative="1" as="geometry">
            <mxPoint x="530" y="140" as="sourcePoint" />
            <mxPoint x="530" y="240" as="targetPoint" />
          </mxGeometry>
        </mxCell>
        <mxCell id="WcaRMcE1ToPl9hFpoS0a-17" value="swealth.shopee.co.id" style="edgeLabel;resizable=0;html=1;align=center;verticalAlign=middle;fontStyle=0;fontSize=9;" connectable="0" vertex="1" parent="WcaRMcE1ToPl9hFpoS0a-16">
          <mxGeometry relative="1" as="geometry" />
        </mxCell>
        <mxCell id="WcaRMcE1ToPl9hFpoS0a-18" value="DP services" style="rounded=1;whiteSpace=wrap;html=1;fontSize=16;" vertex="1" parent="1">
          <mxGeometry x="470" y="290" width="120" height="60" as="geometry" />
        </mxCell>
        <mxCell id="WcaRMcE1ToPl9hFpoS0a-19" value="" style="endArrow=classic;html=1;rounded=0;edgeStyle=orthogonalEdgeStyle;" edge="1" parent="1" target="WcaRMcE1ToPl9hFpoS0a-18">
          <mxGeometry relative="1" as="geometry">
            <mxPoint x="530" y="240" as="sourcePoint" />
            <mxPoint x="540" y="220" as="targetPoint" />
          </mxGeometry>
        </mxCell>
        <mxCell id="WcaRMcE1ToPl9hFpoS0a-20" value="&lt;font style=&quot;font-size: 11px&quot;&gt;/digital-purchase&lt;/font&gt;" style="edgeLabel;resizable=0;html=1;align=center;verticalAlign=middle;fontStyle=0;fontSize=9;" connectable="0" vertex="1" parent="WcaRMcE1ToPl9hFpoS0a-19">
          <mxGeometry relative="1" as="geometry" />
        </mxCell>
      </root>
    </mxGraphModel>
  </diagram>
</mxfile>
